<svg width="767" height="720" viewBox="0 0 767 720" fill="none" xmlns="http://www.w3.org/2000/svg">
<path d="M258.673 557.109L257.251 557.584L258.673 557.109ZM708.973 1073.61C496.73 967.631 335.267 781.667 260.096 556.633L257.251 557.584C332.674 783.372 494.677 969.96 707.633 1076.3L708.973 1073.61ZM260.096 556.633C184.925 331.599 202.203 85.9285 308.139 -126.337L305.455 -127.677C199.164 85.3008 181.828 331.795 257.251 557.584L260.096 556.633Z" fill="#FF592C"/>
<path d="M213.634 335.873C214.337 342.672 212.311 349.471 208.001 354.776C203.691 360.08 197.45 363.456 190.652 364.159L190.873 366.295C197.671 365.592 204.471 367.618 209.775 371.928C215.08 376.238 218.455 382.478 219.159 389.277L221.295 389.056C220.592 382.257 222.618 375.458 226.928 370.153C231.238 364.849 237.478 361.473 244.277 360.77L244.056 358.634C237.257 359.337 230.458 357.311 225.153 353.001C219.849 348.691 216.473 342.451 215.77 335.652L213.634 335.873Z" fill="#FF592C"/>
</svg>
