<svg width="34" height="18" viewBox="0 0 34 18" fill="none" xmlns="http://www.w3.org/2000/svg">
<path d="M0 9H26"  stroke-width="1.5"/>
<path d="M25.3452 17.9995C25.3451 16.8629 25.5689 15.7374 26.0038 14.6873C26.4387 13.6372 27.0762 12.6831 27.8799 11.8794C28.6836 11.0757 29.6377 10.4382 30.6878 10.0033C31.7379 9.56838 32.8634 9.34461 34 9.34472L34 8.65528C31.7045 8.65507 29.5032 7.7431 27.88 6.11997C26.2569 4.49683 25.3449 2.29546 25.3447 0L24.6553 6.27679e-06C24.6554 1.1366 24.4316 2.26207 23.9967 3.31216C23.5618 4.36226 22.9243 5.31641 22.1206 6.1201C21.3169 6.92379 20.3628 7.56129 19.3127 7.9962C18.2626 8.4311 17.1371 8.65488 16.0005 8.65477L16 9.34472C18.2955 9.34474 20.497 10.2566 22.1202 11.8798C23.7434 13.503 24.6553 15.7045 24.6553 18L25.3452 17.9995Z" />
</svg>
