<svg width="39" height="24" viewBox="0 0 39 24" fill="none" xmlns="http://www.w3.org/2000/svg">
<path fill-rule="evenodd" clip-rule="evenodd" d="M14.7259 12C14.7259 8.18536 16.4889 4.78909 19.2333 2.59115C17.2097 0.970592 14.6529 0 11.8705 0C5.31463 0 0 5.37261 0 12C0 18.6274 5.31463 24 11.8705 24C14.6529 24 17.2097 23.0297 19.2333 21.4088C16.4889 19.2108 14.7259 15.8147 14.7259 12ZM16.2379 12.0008C16.2379 14.8776 17.382 17.4791 19.2334 19.3733C21.0849 17.4791 22.2289 14.8776 22.2289 12.0008C22.2289 9.1242 21.0849 6.5226 19.2334 4.62846C17.382 6.52263 16.2379 9.12423 16.2379 12.0008ZM19.2335 2.59115C21.2572 0.97027 23.814 0 26.5964 0C33.1523 0 38.4669 5.37261 38.4669 11.9999C38.4669 18.6274 33.1523 23.9997 26.5964 23.9997C23.814 23.9997 21.2572 23.0294 19.2335 21.4088C21.978 19.2108 23.7409 15.8147 23.7409 11.9999C23.7409 8.18536 21.978 4.78909 19.2335 2.59115Z" fill="white"/>
</svg>
