<svg width="172" height="48" viewBox="0 0 172 48" fill="none" xmlns="http://www.w3.org/2000/svg">
<g clip-path="url(#clip0_424_870)">
<path d="M162.86 23.2727C157.127 23.2727 153.726 27.3477 153.726 32.2942C153.726 37.2407 157.127 41.3157 162.86 41.3157C168.594 41.3157 171.99 37.2925 171.99 32.2942C171.99 27.2959 168.589 23.2727 162.856 23.2727H162.86ZM162.856 39.1628C158.752 39.1628 156.194 36.1949 156.194 32.2942C156.194 28.3935 158.752 25.4256 162.856 25.4256C166.959 25.4256 169.517 28.4218 169.517 32.2942C169.517 36.1666 166.964 39.1769 162.86 39.1769L162.856 39.1628ZM82.7743 25.4398C85.9778 25.4398 88.2484 27.6539 88.3945 29.9528H90.7782C90.6322 26.6034 87.7208 23.2869 82.8921 23.2869C77.0458 23.2869 73.7293 27.3901 73.7293 32.3366C73.7293 37.1983 76.8715 41.3298 83.0381 41.3298C86.7362 41.3298 89.4403 39.6386 90.7782 37.9803L89.2095 36.567C87.5825 38.2192 85.3662 39.1579 83.0475 39.1769C78.4214 39.1769 76.2402 36.1477 76.2402 32.3366C76.2402 28.2616 78.77 25.4398 82.7837 25.4398H82.7743ZM109.353 23.871V31.1683C109.353 36.3786 106.24 39.1769 102.758 39.1769C99.8751 39.1769 98.3063 37.1088 98.3063 33.6462V23.8569H92.6532V25.892H95.9132V34.2163C95.9132 38.3478 98.2686 41.3157 102.579 41.3157C105.924 41.3157 108.195 39.5962 109.33 37.1512V40.7315H111.714V23.8569L109.353 23.871ZM149.797 23.871L143.673 38.3289L137.417 23.871H132.757V25.9061H135.716L142.382 41.3581C141.393 43.7701 139.791 45.254 137.784 45.254C137.101 45.2855 136.421 45.1463 135.805 44.8489V47.03C136.551 47.2979 137.34 47.4257 138.133 47.4069C141.016 47.4069 142.994 45.7204 144.361 42.5782L152.369 23.871H149.797ZM121.979 26.9284V23.8757H114.823V25.9108H119.595V38.7058H114.823V40.7409H127.797V38.7058H121.979V30.7914C122.45 28.0261 124.89 25.4633 127.886 25.4633C128.952 25.4248 130.014 25.6144 131 26.0192V23.8663C130.198 23.4616 129.308 23.261 128.409 23.2821C127.115 23.2864 125.843 23.6242 124.716 24.2628C123.59 24.9015 122.647 25.8195 121.979 26.9284ZM63.0307 26.9284V23.8757H55.8701V25.9108H60.6423V38.7058H55.8701V40.7409H68.8487V38.7058H63.0307V30.7914C63.4641 28.0261 65.9374 25.4633 68.9665 25.4633C70.0214 25.4268 71.0719 25.6163 72.0475 26.0192V23.8663C71.2364 23.4621 70.3389 23.2616 69.4329 23.2821C68.1438 23.2957 66.8795 23.6377 65.7593 24.2757C64.6391 24.9137 63.7 25.8267 63.0307 26.9284ZM30.8502 38.7058V30.1413C30.8502 26.2689 28.377 23.2727 24.6506 23.2727C20.9243 23.2727 19.1529 25.6282 18.3097 27.5126C17.9164 26.2673 17.1319 25.1821 16.0727 24.4182C15.0135 23.6544 13.7362 23.2527 12.4304 23.2727C9.13276 23.2727 7.39441 25.1948 6.46636 26.9378V23.8569H0.511719V25.892H4.05906V40.7315H6.44751V30.8102C6.67835 28.8599 8.33189 25.4539 11.9735 25.4539C14.621 25.4539 16.2793 26.9378 16.2793 30.8385V40.7315H18.6677V30.7207C18.9881 28.8364 20.5521 25.4539 24.1654 25.4539C26.8412 25.4539 28.4429 26.9378 28.4429 30.8385V40.7315H33.5355V38.7058H30.8502ZM44.6392 23.2821C39.052 23.2821 35.6507 27.3854 35.6507 32.3319C35.6507 37.3961 38.906 41.3251 44.9595 41.3251C48.7283 41.3251 51.4182 39.4925 52.497 38.0651L50.9236 36.6518C49.4726 38.2253 47.461 39.158 44.7993 39.158C41.0306 39.158 38.4867 36.6518 38.204 33.0762H53.4816C53.5144 32.8151 53.5332 32.5525 53.5382 32.2895C53.5382 27.3147 50.2782 23.268 44.6627 23.268L44.6392 23.2821ZM51.0366 31.0364H38.237C38.7081 27.7387 41.1766 25.4209 44.6392 25.4209C46.2177 25.3662 47.7574 25.9173 48.9425 26.9615C50.1277 28.0056 50.8685 29.4635 51.0131 31.0364" />
</g>
<path d="M1.302 12H7.42V10.922H2.52V7.604H6.748V6.526H2.52V3.278H7.406V2.2H1.302V12ZM14.7558 5.336V4.804H13.7338L11.8018 7.492L9.82778 4.804H8.80578V5.336L11.0878 8.374L8.77778 11.468V12H9.78578L11.7738 9.228L13.8178 12H14.8258V11.468L12.4878 8.374L14.7558 5.336ZM20.0142 4.636C18.9362 4.636 18.1242 5.196 17.6342 5.756L17.2422 4.804H16.5702V14.24H17.6902V11.118C18.1242 11.636 18.9082 12.168 19.9722 12.168C21.4842 12.168 22.5482 11.244 22.5482 9.522V7.282C22.5482 5.56 21.4702 4.636 20.0142 4.636ZM19.8042 11.146C18.9082 11.146 18.1942 10.558 17.6902 10.012V6.792C18.1942 6.246 18.9222 5.658 19.8182 5.658C20.7702 5.658 21.4282 6.344 21.4282 7.366V9.438C21.4282 10.46 20.7702 11.146 19.8042 11.146ZM24.664 12H25.784V2.13H24.664V12ZM30.7833 11.146C29.5513 11.146 28.9073 10.404 28.9073 9.452V7.352C28.9073 6.4 29.5513 5.658 30.7833 5.658C32.0433 5.658 32.6453 6.414 32.6453 7.352V9.452C32.6453 10.39 32.0433 11.146 30.7833 11.146ZM30.7833 12.168C32.7713 12.168 33.7653 11.006 33.7653 9.494V7.31C33.7653 5.798 32.7713 4.636 30.7833 4.636C28.7953 4.636 27.7873 5.798 27.7873 7.31V9.494C27.7873 11.006 28.7953 12.168 30.7833 12.168ZM35.7655 12H36.8855V6.736C37.4455 6.064 38.1875 5.728 39.1395 5.728H39.2935V4.636H39.1115C38.1035 4.636 37.2495 5.21 36.7595 5.756L36.3535 4.804H35.7655V12ZM43.4571 12.168C45.1931 12.168 46.2011 11.258 46.3271 9.844H45.2071C45.0811 10.614 44.5351 11.146 43.4571 11.146C42.2251 11.146 41.5811 10.46 41.5811 9.494V8.78H46.3691V7.282C46.3691 5.672 45.2771 4.636 43.4571 4.636C41.5811 4.636 40.4611 5.714 40.4611 7.31V9.522C40.4611 11.132 41.5811 12.168 43.4571 12.168ZM41.5811 7.87V7.282C41.5811 6.33 42.2251 5.658 43.4151 5.658C44.6331 5.658 45.2491 6.344 45.2491 7.282V7.87H41.5811ZM56.0716 6.162H55.2596L53.7336 10.488L52.3756 4.804H51.3536V5.336L53.0196 12H54.1256L55.6656 7.898L57.1916 12H58.2836L59.9496 5.336V4.804H58.9416L57.5976 10.488L56.0716 6.162ZM61.7968 12H62.9168V4.804H61.7968V12ZM61.7968 3.67H62.9168V2.13H61.7968V3.67ZM67.8741 12H68.5461V10.978H67.8741C67.1461 10.978 66.6981 10.6 66.6981 9.634V5.784H68.5461V4.804H66.6981V3.306H65.5781V4.804H64.4021V5.784H65.5781V9.662C65.5781 10.824 66.0681 12 67.8741 12ZM70.3827 12H71.5027V6.792C71.9367 6.274 72.7067 5.658 73.5887 5.658C74.4847 5.658 75.1847 6.218 75.1847 7.464V12H76.3047V7.338C76.3047 5.588 75.2267 4.636 73.8267 4.636C72.7767 4.636 71.9927 5.154 71.5027 5.686V2.13H70.3827V12Z"/>
<defs>
<clipPath id="clip0_424_870">
<rect width="171.469" height="24.1201" fill="white" transform="translate(0.53125 23.2726)"/>
</clipPath>
</defs>
</svg>
