<svg width="24" height="24" viewBox="0 0 24 24" fill="none" xmlns="http://www.w3.org/2000/svg">
<path d="M0.00506589 9.1072C0.0657973 8.70223 0.113874 8.29726 0.192318 7.89742C0.584813 5.88189 1.60048 4.04521 3.09224 2.65334C4.3842 1.41125 5.99655 0.564471 7.74325 0.210719C9.76662 -0.225808 11.8754 0.0199245 13.7481 0.910442C15.6387 1.78303 17.1994 3.25238 18.1966 5.09853C18.8659 6.30659 19.265 7.64881 19.3657 9.03031C19.5361 11.0666 19.0677 13.1054 18.0271 14.8562C17.9309 15.0202 17.9765 15.0971 18.0878 15.2125C19.8355 16.9759 21.5816 18.7427 23.3259 20.5129C23.5527 20.7146 23.7309 20.966 23.8472 21.2481C23.9634 21.5302 24.0144 21.8354 23.9965 22.1405C23.9847 22.5074 23.867 22.8627 23.6579 23.1625C23.4487 23.4623 23.1573 23.6933 22.8198 23.827C22.503 23.9752 22.1514 24.0298 21.8053 23.9845C21.4592 23.9391 21.1329 23.7957 20.8638 23.5707C20.7364 23.4664 20.6148 23.3552 20.4994 23.2375C18.8023 21.5202 17.1077 19.8013 15.4156 18.0806C15.395 18.0493 15.3678 18.023 15.336 18.0035C15.3042 17.9841 15.2685 17.972 15.2316 17.968C15.1946 17.9641 15.1573 17.9685 15.1222 17.9809C15.0871 17.9932 15.0551 18.0133 15.0285 18.0396C13.8955 18.8189 12.6046 19.3313 11.2505 19.539C9.3533 19.8596 7.40473 19.5916 5.66068 18.77C3.75974 17.8907 2.19104 16.4115 1.18933 14.5538C0.546191 13.3942 0.155348 12.1086 0.0430215 10.7835C0.0335394 10.7142 0.0191598 10.6456 0 10.5784L0.00506589 9.1072ZM16.2482 9.82486C16.2442 8.06605 15.5507 6.38086 14.3202 5.13984C13.0898 3.89881 11.4231 3.20357 9.68665 3.20697C8.8262 3.20696 7.97422 3.37917 7.17967 3.7137C6.38512 4.04823 5.66367 4.5385 5.05676 5.15632C4.44986 5.77414 3.96947 6.50735 3.64319 7.31381C3.31691 8.12027 3.15117 8.98408 3.1555 9.85562C3.1568 10.7292 3.32877 11.5938 3.66147 12.3997C3.99418 13.2056 4.48105 13.9369 5.09404 14.5513C5.70703 15.1658 6.43401 15.6513 7.23309 15.9799C8.03216 16.3084 8.88753 16.4736 9.74992 16.4658C11.4783 16.4489 13.1303 15.742 14.347 14.4985C15.5637 13.2551 16.2469 11.5756 16.2482 9.82486Z"/>
</svg>
