<svg width="63" height="20" viewBox="0 0 63 20" fill="none" xmlns="http://www.w3.org/2000/svg">
<path fill-rule="evenodd" clip-rule="evenodd" d="M54.498 0.344336C54.9511 0.344222 55.4042 0.344222 55.8585 0.344222C56.7673 0.344222 57.6811 0.344336 58.6105 0.344336C58.7463 0.975905 58.8833 1.59822 59.0141 2.22191C60.0883 7.34173 61.1601 12.4621 62.237 17.5815C62.3748 18.2371 62.5376 18.8879 62.689 19.5408V19.6783H58.0048C57.8334 18.8592 57.6496 18.0577 57.5044 17.2495C57.4442 16.914 57.3364 16.7839 56.9599 16.7888C55.0817 16.8128 53.2029 16.8069 51.3247 16.792C51.0402 16.7898 50.9273 16.8832 50.8408 17.1408C50.582 17.911 50.299 18.6735 50.0096 19.4329C49.9702 19.536 49.8398 19.6773 49.7506 19.6781C48.0577 19.6927 46.3644 19.689 44.6225 19.689C44.9398 18.9287 45.2405 18.2026 45.5457 17.4783C47.7287 12.2975 49.9126 7.11685 52.0964 1.93628C52.5694 0.814187 53.2784 0.344336 54.498 0.344336ZM55.0137 5.71804C54.1555 8.07254 53.2974 10.4271 52.4298 12.8078H56.5582C56.0591 10.4271 55.5666 8.07859 55.0742 5.7298C55.054 5.7258 55.0339 5.72191 55.0137 5.71804ZM39.9309 0H42.283C42.9011 0.114093 43.5239 0.208087 44.1359 0.348448C44.6945 0.476475 45.2414 0.655324 45.8351 0.823323C45.5359 2.21506 45.2437 3.57345 44.9579 4.90237C44.1748 4.67407 43.4263 4.41092 42.6568 4.24214C41.6046 4.01097 40.5262 3.92292 39.4733 4.21484C39.0453 4.33338 38.612 4.56122 38.2754 4.84835C37.6972 5.34092 37.6895 6.04981 38.2416 6.56706C38.6222 6.92361 39.0733 7.21621 39.524 7.48597C40.549 8.09904 41.625 8.63214 42.6211 9.28689C43.7942 10.0581 44.6497 11.1184 44.8294 12.5521C45.1471 15.0875 44.2045 17.0848 42.0632 18.4979C40.7167 19.3862 39.193 19.783 37.6054 19.93C35.3885 20.1353 33.2153 19.8883 31.0972 19.1961C30.9551 19.1498 30.8168 19.0919 30.6785 19.0356C30.6373 19.0187 30.6013 18.9889 30.538 18.9497C30.8372 17.5559 31.1368 16.1599 31.4449 14.7249C31.806 14.8818 32.1449 15.039 32.4913 15.1778C34.146 15.841 35.8553 16.1443 37.6264 15.8143C38.0872 15.7286 38.5572 15.526 38.9478 15.2657C39.7953 14.7005 39.8767 13.6382 39.1049 12.9745C38.5976 12.5381 37.9879 12.2158 37.4098 11.8656C36.5071 11.3187 35.5482 10.8526 34.6938 10.2403C33.5988 9.45557 32.8057 8.40934 32.6554 7.01864C32.4302 4.9364 33.2071 3.24567 34.814 1.93193C36.212 0.788947 37.872 0.281636 39.6403 0.0685246C39.7385 0.0567612 39.8343 0.0232983 39.9309 0ZM18.6453 0.640705C18.734 0.416059 18.843 0.338055 19.0836 0.338055C19.0866 0.338055 19.0895 0.338055 19.0927 0.338055C20.202 0.346849 21.3115 0.346049 22.421 0.34525C22.8562 0.344907 23.2914 0.344679 23.7267 0.344907C23.8264 0.344907 23.9262 0.353472 24.0677 0.360097C23.8045 0.989838 23.5554 1.59035 23.3028 2.18948C20.8922 7.90991 18.4784 13.629 16.0775 19.3535C15.9631 19.6262 15.8232 19.6977 15.5452 19.6956C14.0235 19.683 12.5018 19.678 10.9804 19.6989C10.6579 19.7032 10.5527 19.5908 10.4786 19.3029C9.18861 14.3029 7.87729 9.30825 6.60191 4.30449C6.36792 3.3866 5.89957 2.7596 5.02111 2.37483C3.613 1.75811 2.15139 1.32469 0.660378 0.972707C0.594358 0.95706 0.528798 0.940044 0.466797 0.924512C0.47426 0.344336 0.47426 0.344336 1.02917 0.344336C3.692 0.344336 6.35471 0.343651 9.01754 0.344565C10.2805 0.344907 11.1922 1.07469 11.431 2.31819C12.107 5.83841 12.7685 9.36124 13.4364 12.8829C13.4655 13.037 13.4987 13.1902 13.5432 13.4071C13.6121 13.2781 13.6602 13.2055 13.6916 13.1265C15.3455 8.9655 17 4.80484 18.6453 0.640705ZM26.2082 0.364894H31.2535C31.0436 1.34526 30.8382 2.30699 30.6316 3.26828C29.4885 8.5851 28.3413 13.901 27.2107 19.2205C27.1322 19.5899 27.0005 19.7075 26.6148 19.7C25.2323 19.6735 23.8487 19.6895 22.4655 19.6895H22.051C23.4423 13.2229 24.8235 6.80187 26.2082 0.364894Z" fill="white"/>
</svg>
