<svg width="127" height="121" viewBox="0 0 127 121" fill="none" xmlns="http://www.w3.org/2000/svg">
<path d="M111.5 4.50027L112.24 4.6216L111.5 4.50027ZM16.5 91.5L15.7567 91.3997L16.5 91.5ZM126.228 107.68C126.327 107.278 126.082 106.871 125.68 106.772L119.127 105.153C118.725 105.054 118.318 105.299 118.219 105.701C118.12 106.103 118.365 106.51 118.767 106.609L124.592 108.048L123.153 113.873C123.054 114.275 123.299 114.682 123.701 114.781C124.103 114.88 124.51 114.635 124.609 114.233L126.228 107.68ZM-10.0348 44.4761C6.23342 45.2308 35.6893 41.5072 61.5697 34.5504C74.5135 31.071 86.6084 26.7711 95.7342 21.7925C100.297 19.3032 104.145 16.6297 106.988 13.7827C109.829 10.937 111.706 7.87802 112.24 4.6216L110.76 4.37894C110.294 7.22252 108.634 10.0112 105.926 12.7228C103.22 15.4331 99.5051 18.0266 95.0158 20.4757C86.0374 25.3739 74.0699 29.637 61.1803 33.1018C35.394 40.0333 6.09992 43.723 -9.96524 42.9777L-10.0348 44.4761ZM112.24 4.6216C112.891 0.648682 112.018 -2.32437 109.724 -4.12738C107.487 -5.8864 104.093 -6.36684 100.07 -5.87008C91.9986 -4.87321 80.7792 0.131086 69.1667 8.34357C45.925 24.7803 20.7596 54.3198 15.7567 91.3997L17.2433 91.6003C22.173 55.0622 47.0076 25.8519 70.0328 9.56825C81.5537 1.42055 92.5344 -3.42798 100.254 -4.38139C104.128 -4.85976 107.027 -4.3397 108.797 -2.94818C110.511 -1.60066 111.359 0.726858 110.76 4.37894L112.24 4.6216ZM15.7567 91.3997C14.6845 99.3471 15.3134 105.323 17.325 109.608C19.3538 113.929 22.7567 116.458 27.0349 117.54C31.2791 118.613 36.3603 118.259 41.817 116.908C47.2827 115.554 53.1814 113.186 59.0911 110.168C70.9082 104.134 82.8447 95.4648 91.5547 86.9748C95.9087 82.7309 99.4791 78.5099 101.824 74.6642C104.148 70.8531 105.359 67.2627 104.733 64.3431L103.267 64.6574C103.766 66.9879 102.821 70.1474 100.543 73.8833C98.2866 77.5844 94.81 81.7071 90.5078 85.9007C81.9053 94.2857 70.0918 102.867 58.4089 108.832C52.5686 111.814 46.7798 114.133 41.4564 115.452C36.1241 116.772 31.3147 117.075 27.4026 116.085C23.5245 115.105 20.5055 112.852 18.6828 108.97C16.8428 105.051 16.1905 99.4028 17.2433 91.6003L15.7567 91.3997ZM104.733 64.3431C104.438 62.9641 103.899 61.9 102.991 61.3946C102.044 60.867 100.979 61.0957 100.009 61.6307C99.0316 62.1698 97.9936 63.0977 96.9394 64.286C95.8779 65.4827 94.7675 66.9808 93.6519 68.7017C89.1982 75.5717 84.5355 86.1892 82.5155 95.9735C81.5058 100.864 81.1449 105.601 81.8353 109.579C82.5273 113.568 84.2943 116.875 87.6015 118.732C90.8867 120.577 95.5248 120.894 101.753 119.299C107.989 117.701 115.919 114.161 125.888 108.142L125.112 106.858C115.206 112.839 107.418 116.299 101.38 117.846C95.3346 119.395 91.1446 119.001 88.336 117.424C85.5494 115.86 83.9571 113.034 83.3132 109.323C82.6676 105.603 82.9942 101.073 83.9845 96.2768C85.9645 86.6861 90.5518 76.2412 94.9106 69.5176C95.9981 67.8401 97.0635 66.4065 98.0616 65.2814C99.067 64.148 99.9723 63.364 100.733 62.9441C101.502 62.5201 101.97 62.5428 102.262 62.7051C102.593 62.8897 103 63.4115 103.267 64.6574L104.733 64.3431Z" fill="#FF592C"/>
</svg>
