<svg width="368" height="145" viewBox="0 0 368 145" fill="none" xmlns="http://www.w3.org/2000/svg">
<path d="M246 5.50016L246.109 4.75821L246 5.50016ZM11.4993 117.5L10.8938 117.943L11.4993 117.5ZM163.748 99.4626C163.728 99.0489 163.376 98.7303 162.962 98.751L156.22 99.0881C155.807 99.1088 155.488 99.4609 155.509 99.8746C155.529 100.288 155.881 100.607 156.295 100.586L162.288 100.287L162.587 106.279C162.608 106.693 162.96 107.011 163.374 106.991C163.788 106.97 164.106 106.618 164.085 106.204L163.748 99.4626ZM384.249 144.503C384.333 119.582 379.568 89.0237 359.851 62.4903C340.123 35.9405 305.506 13.53 246.109 4.75821L245.89 6.24211C304.993 14.9704 339.209 37.2265 358.647 63.385C378.097 89.56 382.832 119.752 382.749 144.498L384.249 144.503ZM246.109 4.75821C176.084 -5.58314 104.399 4.76868 56.6447 26.5882C32.7784 37.493 14.7919 51.3073 6.03815 66.9317C1.65415 74.7566 -0.415185 83.0394 0.265976 91.6206C0.946922 100.199 4.37232 109.023 10.8938 117.943L12.1047 117.057C5.71501 108.318 2.41629 99.7538 1.76127 91.5019C1.10647 83.2528 3.08933 75.2639 7.34676 67.6649C15.8759 52.4414 33.5291 38.7992 57.2681 27.9525C104.725 6.26879 176.112 -4.06269 245.89 6.24211L246.109 4.75821ZM10.8938 117.943C19.5563 129.79 32.71 135.419 47.6535 137.019C62.5875 138.619 79.3747 136.206 95.4426 131.912C111.518 127.616 126.918 121.426 139.096 115.431C145.185 112.433 150.477 109.481 154.649 106.834C158.805 104.197 161.901 101.832 163.555 100.003L162.443 98.9969C160.931 100.668 157.98 102.944 153.846 105.567C149.727 108.18 144.485 111.106 138.434 114.085C126.33 120.043 111.022 126.196 95.0554 130.463C79.0816 134.732 62.4937 137.1 47.8132 135.528C33.1422 133.956 20.4419 128.46 12.1047 117.057L10.8938 117.943Z" fill="#FF592C"/>
</svg>
