<svg width="860" height="550" viewBox="0 0 860 550" fill="none" xmlns="http://www.w3.org/2000/svg">
<path d="M751.227 0.613698C643.119 126.863 489.287 204.992 323.571 217.82C157.856 230.648 -6.16815 177.124 -132.417 69.0161L-166.386 108.685C-40.1366 216.793 37.9924 370.625 50.8203 536.341C63.6483 702.056 10.1244 866.08 -97.9834 992.329L-58.3148 1026.3C49.793 900.048 203.626 821.919 369.341 809.091C535.057 796.263 699.08 849.787 825.33 957.895L859.298 918.226C733.049 810.119 654.92 656.286 642.092 490.571C629.264 324.855 682.788 160.831 790.896 34.5821L751.227 0.613698Z" fill="white"/>
</svg>
